<svg xmlns="http://www.w3.org/2000/svg" viewBox="0 0 32 32" id="employee"><path fill="#231f20" d="M9.5 17A4.5 4.5 0 1 1 14 12.5 4.51 4.51 0 0 1 9.5 17zm0-7A2.5 2.5 0 1 0 12 12.5 2.5 2.5 0 0 0 9.5 10zM20.5 14A5.5 5.5 0 1 1 26 8.5 5.51 5.51 0 0 1 20.5 14zm0-9A3.5 3.5 0 1 0 24 8.5 3.5 3.5 0 0 0 20.5 5zM29 30H12a1 1 0 0 1 0-2H28V22.42a5.51 5.51 0 0 0-5.5-5.5h-4a5.5 5.5 0 0 0-5 3.26 1 1 0 1 1-1.82-.82 7.48 7.48 0 0 1 6.84-4.44h4a7.5 7.5 0 0 1 7.5 7.5V29A1 1 0 0 1 29 30z"></path><path fill="#231f20" d="M16,30H3a1,1,0,0,1-1-1V25.5a7.5,7.5,0,0,1,15,0V29A1,1,0,0,1,16,30ZM4,28H15V25.5a5.5,5.5,0,0,0-11,0Z"></path><path fill="#231f20" d="M7 27a1 1 0 0 1-1-1V24a1 1 0 0 1 2 0v2A1 1 0 0 1 7 27zM25 26.85a1 1 0 0 1-1-1v-2a1 1 0 0 1 2 0v2A1 1 0 0 1 25 26.85z"></path></svg>