<svg xmlns="http://www.w3.org/2000/svg" viewBox="0 0 32 32" id="return"><path d="M29.555,19.833c-.17,.114-.363,.168-.554,.168-.323,0-.641-.156-.833-.445l-.491-.737c-1.304,5.829-6.559,10.181-12.677,10.181-7.168,0-13-5.832-13-13S7.832,3,15,3c4.172,0,8.12,2.025,10.56,5.416,.323,.448,.221,1.073-.228,1.396-.45,.322-1.074,.22-1.396-.228-2.065-2.87-5.406-4.584-8.937-4.584-6.065,0-11,4.935-11,11s4.935,11,11,11c5.046,0,9.401-3.498,10.64-8.241l-.454,.451c-.392,.39-1.025,.387-1.414-.005-.389-.392-.387-1.025,.005-1.414l2.518-2.5c.212-.211,.504-.316,.805-.286,.297,.03,.566,.192,.731,.44l2,3.001c.306,.459,.182,1.081-.277,1.387Zm-11.262-7.04l-4.293,4.293-2.293-2.293c-.391-.391-1.023-.391-1.414,0s-.391,1.023,0,1.414l3,3c.195,.195,.451,.293,.707,.293s.512-.098,.707-.293l5-5c.391-.391,.391-1.023,0-1.414s-1.023-.391-1.414,0Z"></path></svg>